# xmcd CD database file
#
# Track frame offsets:
#	150
#	29342
#	69490
#	102513
#	134310
#	158136
#	186668
#	213789
#
# Disc length: 3248 seconds
#
# Revision: 0
# Processed by: cddbd v1.4PL0 Copyright (c) Steve Scherf et al.
# Submitted via: CDex 1.51
#
DISCID=710cae08
DTITLE=Peter Makenna - Heart of Kindness
DYEAR=2002
DGENRE=New Age
TTITLE0=Love-Light-Healing
TTITLE1=Deep Peace
TTITLE2=Walk in Freedom
TTITLE3=On a breeeze of Wonder
TTITLE4=Prayer of St. Francis
TTITLE5=Let it be a Blessing
TTITLE6=Heart of Kindness
TTITLE7=Om Shanti
EXTD=YEAR: 2002
EXTT0=
EXTT1=
EXTT2=
EXTT3=
EXTT4=
EXTT5=
EXTT6=
EXTT7=
PLAYORDER=
